#!OML:ASF F:\VICON\USERDATA\INSTALL\rory3\rory3.ASF
:FULLY-SPECIFIED
:DEGREES
1101
root 1.00186 9.97863 -6.97151 -28.7679 5.79362 0.581379
lowerback 37.465 1.86449 -1.7047
upperback 12.7519 1.83464 -0.0121257
thorax -4.37943 0.897876 0.222181
lowerneck -13.507 4.5208 -4.03041
upperneck 6.8292 6.75679 0.101158
head 4.08811 3.22588 1.16047
rclavicle -1.18277e-014 9.34288e-015
rhumerus 9.47458 20.6487 -47.5262
rradius 99.1502
rwrist 15.7699
rhand -15.5661 7.71834
rfingers 7.12502
rthumb 10.6187 -21.9934
lclavicle -1.18277e-014 9.34288e-015
lhumerus 20.5723 -28.4961 41.1767
lradius 92.2412
lwrist 0.71356
lhand -9.07323 20.9909
lfingers 7.12502
lthumb 16.8759 50.2776
rfemur -102.545 -29.4142 27.9717
rtibia 140.542
rfoot 20.2108 -13.9268
rtoes 16.0993
lfemur -98.6761 27.4959 -28.8725
ltibia 139.62
lfoot 0.887297 -0.337116
ltoes -0.816604
1102
root 0.999015 9.97846 -6.98267 -28.8171 5.72084 0.458191
lowerback 37.5568 1.86322 -1.61079
upperback 12.8136 1.86907 0.0446091
thorax -4.34262 0.914832 0.22016
lowerneck -13.5499 4.54434 -4.07274
upperneck 6.81104 6.79398 0.135778
head 4.08583 3.24547 1.18089
rclavicle 6.95746e-016 -1.37161e-014
rhumerus 8.58517 20.8319 -47.9987
rradius 99.2193
rwrist 15.5235
rhand -15.4025 7.80406
rfingers 7.12502
rthumb 10.7765 -21.8995
lclavicle 6.95746e-016 -1.37161e-014
lhumerus 19.5778 -28.8913 41.5759
lradius 92.4883
lwrist 0.780506
lhand -8.9902 20.8424
lfingers 7.12502
lthumb 16.9559 50.1223
rfemur -102.406 -29.1317 28.1105
rtibia 140.425
rfoot 20.2725 -14.0282
rtoes 15.6883
lfemur -98.7622 27.693 -28.7347
ltibia 139.609
lfoot 0.99327 -0.492327
ltoes -0.56283
1103
root 0.996898 9.98604 -7.00008 -29.0186 5.72821 0.487057
lowerback 37.8365 1.89653 -1.64748
upperback 12.8744 1.89357 0.0564147
thorax -4.36823 0.92544 0.238504
lowerneck -13.4813 4.54136 -4.071
upperneck 6.69676 6.78604 0.117799
head 4.04047 3.24335 1.17051
rclavicle 9.29318e-015 -1.78906e-015
rhumerus 7.6694 21.0083 -48.4949
rradius 99.2505
rwrist 15.3928
rhand -15.1558 7.82563
rfingers 7.12502
rthumb 11.0145 -21.8654
lclavicle 9.29318e-015 -1.78906e-015
lhumerus 18.6424 -29.2634 42.011
lradius 92.745
lwrist 0.66276
lhand -8.57128 20.7754
lfingers 7.12502
lthumb 17.3591 50.0202
rfemur -102.027 -29.1126 27.9745
rtibia 140.284
rfoot 20.2318 -13.9426
rtoes 15.1228
lfemur -98.4545 27.8999 -28.7204
ltibia 139.503
lfoot 0.960684 -0.580907
ltoes -0.330409
1104
root 0.994603 9.99361 -7.01639 -29.1775 5.85267 0.623436
lowerback 38.082 1.95292 -1.83106
upperback 12.9008 1.89555 0.0733765
thorax -4.42252 0.921113 0.346334
lowerneck -13.2345 4.54759 -4.11011
upperneck 6.506 6.7865 0.111934
head 3.94106 3.24745 1.1644
rclavicle 4.96962e-016 5.96354e-015
rhumerus 6.69822 21.2729 -48.9272
rradius 99.3266
rwrist 15.4534
rhand -14.7824 7.29615
rfingers 7.12502
rthumb 11.3746 -22.3753
lclavicle 4.96962e-016 5.96354e-015
lhumerus 17.6323 -29.5792 42.6302
lradius 92.9687
lwrist 0.419327
lhand -8.04978 20.5637
lfingers 7.12502
lthumb 17.8609 49.7635
rfemur -101.857 -29.3674 27.6936
rtibia 140.253
rfoot 20.0604 -13.8703
rtoes 15.371
lfemur -98.0935 27.8845 -28.8737
ltibia 139.331
lfoot 0.921631 -0.55953
ltoes -0.553332
1105
root 0.992433 9.99884 -7.02964 -29.2574 5.94839 0.786007
lowerback 38.2721 2.02602 -2.04393
upperback 12.8804 1.9075 0.100091
thorax -4.51078 0.920419 0.47616
lowerneck -12.8862 4.5873 -4.12241
upperneck 5.96155 6.8315 -0.0107973
head 4.14082 3.26535 1.24576
rclavicle -3.8763e-015 -1.88845e-014
rhumerus 5.74454 21.6564 -49.3218
rradius 99.4049
rwrist 15.3777
rhand -14.4859 6.21774
rfingers 7.12502
rthumb 11.6605 -23.4378
lclavicle -3.8763e-015 -1.88845e-014
lhumerus 16.5421 -29.8466 43.387
lradius 93.1582
lwrist 0.0341446
lhand -7.68671 20.4361
lfingers 7.12502
lthumb 18.2103 49.6037
rfemur -101.82 -29.562 27.4437
rtibia 140.247
rfoot 19.9567 -13.8345
rtoes 15.9089
lfemur -97.8796 27.8984 -29.0759
ltibia 139.188
lfoot 0.973844 -0.51406
ltoes -0.371408
1106
root 0.991573 10.0026 -7.04313 -29.3001 6.03318 0.953758
lowerback 38.4442 2.06697 -2.19984
upperback 12.8491 1.89532 0.0764608
thorax -4.60162 0.911743 0.532344
lowerneck -12.5948 4.61774 -4.09508
upperneck 5.80354 6.85359 -0.0470414
head 4.02718 3.28032 1.215
rclavicle -2.66371e-014 8.34896e-015
rhumerus 4.8536 21.9992 -49.7735
rradius 99.4314
rwrist 15.2103
rhand -14.3313 5.59114
rfingers 7.12502
rthumb 11.8097 -24.0559
lclavicle -2.66371e-014 8.34896e-015
lhumerus 15.5246 -30.106 44.0274
lradius 93.3655
lwrist -0.296668
lhand -7.44239 20.2915
lfingers 7.12502
lthumb 18.4453 49.437
rfemur -101.742 -29.673 27.2081
rtibia 140.173
rfoot 20.013 -13.7061
rtoes 16.1162
lfemur -97.7444 27.8833 -29.2736
ltibia 139.099
lfoot 0.992847 -0.403432
ltoes 0.261665
1107
root 0.992222 9.99304 -7.04466 -29.3187 6.03484 0.904185
lowerback 38.518 2.03157 -2.10796
upperback 12.8603 1.88309 0.0742862
thorax -4.61088 0.908635 0.485701
lowerneck -12.4437 4.63281 -3.95878
upperneck 5.70793 6.85057 -0.13933
head 3.97097 3.28031 1.152
rclavicle 1.68967e-015 8.54774e-015
rhumerus 4.11169 22.1797 -50.2175
rradius 99.4201
rwrist 15.2594
rhand -13.7622 5.72775
rfingers 7.12502
rthumb 12.3584 -23.887
lclavicle 1.68967e-015 8.54774e-015
lhumerus 14.6676 -30.3102 44.5489
lradius 93.5981
lwrist -0.239717
lhand -7.53492 20.3118
lfingers 7.12502
lthumb 18.3563 49.4657
rfemur -101.788 -29.6022 27.2707
rtibia 140.171
rfoot 20.1617 -13.6723
rtoes 16.1568
lfemur -97.8785 27.8965 -29.2676
ltibia 139.158
lfoot 1.02463 -0.347025
ltoes 0.28102
1108
root 0.993039 9.96214 -7.021 -29.3948 5.86021 0.618903
lowerback 38.5375 1.97833 -1.80509
upperback 12.9181 1.93284 0.152414
thorax -4.55211 0.937546 0.393922
lowerneck -12.2354 4.63736 -3.87006
upperneck 5.52882 6.83419 -0.19856
head 3.87113 3.27652 1.1033
rclavicle -6.55989e-015 1.96797e-014
rhumerus 3.49776 22.3308 -50.6004
rradius 99.3878
rwrist 15.4098
rhand -13.2449 5.92686
rfingers 7.12502
rthumb 12.8571 -23.6571
lclavicle -6.55989e-015 1.96797e-014
lhumerus 13.872 -30.3717 45.1367
lradius 93.8022
lwrist 0.498315
lhand -7.77988 20.6021
lfingers 7.12502
lthumb 18.1206 49.7781
rfemur -101.993 -29.3077 27.6278
rtibia 140.414
rfoot 20.2116 -13.8877
rtoes 16.3326
lfemur -98.294 28.1718 -28.9202
ltibia 139.493
lfoot 0.999297 -0.659417
ltoes -0.536163
1109
root 0.99044 9.95807 -7.02684 -29.6099 5.7442 0.512846
lowerback 38.7338 1.99227 -1.71854
upperback 12.9827 1.98306 0.226863
thorax -4.54512 0.960933 0.406625
lowerneck -12.0465 4.64498 -3.99074
upperneck 5.39685 6.84327 -0.0974096
head 3.77848 3.28747 1.14783
rclavicle 3.27995e-015 -5.96354e-015
rhumerus 2.93336 22.5537 -50.9156
rradius 99.3399
rwrist 15.4956
rhand -13.6932 5.99404
rfingers 7.12502
rthumb 12.4249 -23.6167
lclavicle 3.27995e-015 -5.96354e-015
lhumerus 13.0642 -30.2945 45.8428
lradius 93.9693
lwrist 1.72391
lhand -8.0793 21.0119
lfingers 7.12502
lthumb 17.8325 50.2143
rfemur -101.709 -29.1661 27.6721
rtibia 140.396
rfoot 20.1324 -14.0245
rtoes 16.6149
lfemur -98.1635 28.5523 -28.7144
ltibia 139.538
lfoot 0.981675 -0.91221
ltoes -0.807053
